<svg xmlns="http://www.w3.org/2000/svg" viewBox="0 0 24 24" fill="url(#grad)">
  <defs>
    <linearGradient id="grad" x1="0%" y1="0%" x2="100%" y2="0%">
      <stop offset="0%" stop-color="#DC2626"></stop>
      <stop offset="100%" stop-color="#FB923C"></stop>
    </linearGradient>
  </defs>
  <path d="M12 .5C5.73.5.5 5.74.5 12.02c0 5.1 3.29 9.42 7.86 10.95.58.1.79-.25.79-.56v-2c-3.2.7-3.87-1.38-3.87-1.38-.53-1.36-1.29-1.72-1.29-1.72-1.05-.72.08-.71.08-.71 1.16.08 1.77 1.2 1.77 1.2 1.03 1.77 2.7 1.26 3.36.96.1-.75.4-1.26.73-1.55-2.55-.29-5.23-1.28-5.23-5.7 0-1.26.45-2.3 1.2-3.12-.12-.3-.52-1.52.12-3.18 0 0 .98-.31 3.2 1.19a11.2 11.2 0 0 1 5.82 0c2.22-1.5 3.2-1.19 3.2-1.19.64 1.66.24 2.88.12 3.18.75.82 1.2 1.86 1.2 3.12 0 4.43-2.68 5.41-5.24 5.69.41.36.78 1.07.78 2.15v3.18c0 .31.21.67.8.56A11.53 11.53 0 0 0 23.5 12C23.5 5.74 18.27.5 12 .5z"></path>
</svg>
