<svg xmlns="http://www.w3.org/2000/svg" viewBox="0 0 24 26" fill="url(#grad)">
  <defs>
    <linearGradient id="grad" x1="0%" y1="0%" x2="100%" y2="0%">
      <stop offset="0%" stop-color="#DC2626"></stop>
      <stop offset="100%" stop-color="#FB923C"></stop>
    </linearGradient>
  </defs>
  <path d="M4.98 3.5C4.98 4.88 3.88 6 2.5 6S0 4.88 0 3.5 1.12 1 2.5 1 4.98 2.12 4.98 3.5zM0 8h5v16H0V8zm7.5 0h4.8v2.2h.07c.67-1.27 2.3-2.6 4.73-2.6C22.2 7.6 24 10.2 24 14.2V24h-5v-8.4c0-2-.04-4.6-2.8-4.6-2.8 0-3.2 2.2-3.2 4.5V24h-5V8z"></path>
</svg>
